<?xml version="1.0" encoding="UTF-8"?>
<svg id="_Слой_1" data-name="Слой 1" xmlns="http://www.w3.org/2000/svg" width="30.43mm" height="10.9mm" viewBox="0 0 86.26 30.9">
  <defs>
    <style>
      .cls-1 {
        letter-spacing: -.02em;
      }

      .cls-2 {
        fill: #3f6a93;
      }

      .cls-2, .cls-3, .cls-4, .cls-5, .cls-6, .cls-7, .cls-8, .cls-9, .cls-10, .cls-11 {
        stroke-width: 0px;
      }

      .cls-3 {
        fill: #1d9aaa;
      }

      .cls-12, .cls-13 {
        isolation: isolate;
      }

      .cls-4 {
        fill: #3e71a0;
      }

      .cls-5 {
        fill: #2f5983;
      }

      .cls-6 {
        fill: #4978a5;
      }

      .cls-7 {
        fill: #f0f2f4;
      }

      .cls-8 {
        fill: #27adb7;
      }

      .cls-9 {
        fill: #1da0a9;
      }

      .cls-10 {
        fill: #dbdddf;
      }

      .cls-11 {
        fill: #e6e9f0;
      }

      .cls-13 {
        fill: #173752;
        font-family: Arial-BoldMT, Arial;
        font-size: 15.64px;
        font-weight: 700;
      }
    </style>
  </defs>
  <g>
    <path class="cls-7" d="M4.32,30.73c-.34-.33-.53-.77-.72-1.65-.03-.15-.09-.14-.18.03-.07.15-.24.33-.38.41-.14.09-.26.19-.26.23,0,.04-.04.06-.09.05-.19-.07-.31-.66-.34-1.71-.03-1.25-.09-1.4-.43-1.28-.13.05-.26.16-.3.26s-.12.19-.16.19c-.06,0-.07-.18-.04-.6.02-.33.05-.67.05-.76,0-.19.13-1.01.25-1.53.05-.23.12-.37.19-.37.14,0,.14.22,0,.98-.15.81-.15.8.16.38.26-.33.3-.36.56-.34.26.02.29.05.31.29.02.15-.03.48-.1.74-.15.59-.26,2.64-.13,2.56.05-.03.09-.11.09-.17s.03-.11.06-.11c.04,0,.13-.15.22-.33.19-.43.39-.6.7-.6.17,0,.24.29.21.88-.05.96.05,1.43.4,1.88.11.14.19.07.22-.21.13-1,.87-2,2.66-3.58.23-.2,1.76-1.35,2.25-1.7.14-.1.3-.22.35-.26.05-.05,1.11-.75,2.34-1.58,2.83-1.89,3.97-2.79,4.61-3.62.32-.42.45-.87.92-3.31.35-1.77.86-3.94,1.15-4.82.12-.38.29-.9.36-1.15.41-1.39,1.45-3.53,2.11-4.32.3-.36.55-.57.92-.76.48-.26.5-.27.46-.5-.06-.3-.43-1.03-.72-1.43-.39-.55-.74-.88-1.24-1.22-.61-.42-1.06-.61-1.56-.68-.31-.04-.39-.08-.39-.2,0-.13.04-.14.49-.09,1.63.18,3.21,1.53,3.88,3.34.19.5.16.83-.09,1.01-.11.09-.29.19-.4.22-.22.05-.31.12-.7.49-.49.47-.61.67-1.16,1.8-.72,1.49-.87,1.87-1.21,2.97-.15.51-.33,1.08-.39,1.25-.06.18-.13.42-.15.54-.02.12-.05.26-.07.32-.04.11-.49,2.04-.54,2.35-.02.1-.05.27-.08.38-.02.11-.05.3-.08.43-.02.13-.07.39-.11.58s-.16.81-.27,1.39c-.27,1.4-.41,1.68-1.27,2.52-.39.38-.77.73-.85.77-.17.09-.69.49-.91.68-.12.11-1.23.87-2.13,1.45-.06.04-.32.22-.57.39s-.46.31-.48.31-.19.12-.39.26c-.19.13-.43.3-.53.36-.81.53-1.82,1.27-2.44,1.78-.23.2-.51.42-.62.49-.32.22-1.4,1.31-1.8,1.8-.47.61-.74,1.18-.81,1.77-.09.77-.28.84-.82.33h0Z"/>
    <path class="cls-7" d="M1.81,23.49c.03-.25.1-.62.16-.84.06-.21.16-.65.24-.97.13-.59.5-1.77.69-2.21.05-.12.26-.65.47-1.16.45-1.13,1.75-4.04,2.31-5.15,1.02-2.04,2.76-4.77,4.24-6.67.99-1.27,3.09-3.41,3.86-3.93.96-.66,1.12-.76,1.47-.95.67-.36,1.43-.67,1.99-.79.72-.16.8-.15.8.03,0,.11-.05.15-.17.15-.29,0-1.66.43-1.77.55-.05.05-.59.3-.65.3-.03,0-.12.06-.2.14-.08.07-.28.2-.44.29s-.33.19-.36.25-.12.1-.17.1c-.06,0-.12.03-.12.06s-.19.19-.43.36-.43.33-.43.37c0,.03-.03.05-.08.05-.04,0-.22.15-.39.35-.26.28-.37.35-.58.35-.24,0-.26.02-.26.24,0,.3-.49.84-.75.84-.15,0-.18.04-.18.22,0,.22-.2.48-.37.48-.05,0-.09.07-.09.15s-.05.18-.12.2c-.06.03-.12.09-.12.15,0,.05-.06.15-.14.2s-.16.16-.19.24c-.02.07-.12.13-.21.13-.12,0-.15.05-.15.19,0,.11-.03.19-.08.19-.04,0-.08.05-.08.12,0,.07-.05.14-.12.16-.06.03-.12.09-.12.15s-.03.11-.08.11c-.04,0-.08.05-.08.12s-.03.12-.08.12c-.04,0-.08.05-.08.12,0,.07-.05.14-.12.16-.06.03-.12.09-.12.15s-.03.11-.08.11c-.04,0-.08.05-.08.12s-.03.12-.08.12c-.04,0-.08.05-.08.12s-.03.12-.08.12c-.04,0-.08.05-.08.12s-.03.12-.07.12-.09.08-.12.18c-.02.09-.11.25-.2.34-.09.09-.15.21-.15.26,0,.04-.03.08-.08.08-.04,0-.08.03-.08.08,0,.04-.33.64-.71,1.34-.39.69-.98,1.8-1.3,2.48-.32.67-.63,1.22-.67,1.22-.06,0-.1.1-.1.23,0,.29-.22.77-.36.77-.06,0-.1.1-.1.26,0,.15-.05.32-.12.39-.06.06-.12.19-.12.27s-.05.2-.12.27c-.06.06-.12.17-.12.23,0,.07-.09.34-.2.61-.77,1.85-1.15,3.12-1.51,5.03-.07.36-.12.44-.24.44-.15,0-.15-.03-.11-.44h0Z"/>
  </g>
  <g>
    <path class="cls-11" d="M4.3,30.57c-.35-.36-.59-.94-.59-1.39,0-.24.03-.29.15-.29s.15.05.15.23c0,.13.08.4.18.6.11.24.18.28.19.12.02-.19.08-.27.26-.35.19-.09.22-.15.22-.36,0-.19.04-.27.15-.3.1-.02.15-.11.15-.22,0-.1.04-.19.08-.19.05,0,.08-.05.08-.1,0-.18.29-.38.5-.35.13.02.09.17-.15.45-.6.73-.77,1.14-.87,2.04-.02.24-.08.44-.12.44s-.22-.15-.39-.33h0Z"/>
    <path class="cls-11" d="M2.56,29.52c-.1-.19-.22-1.16-.2-1.63.03-.77.14-1.7.25-2.09.14-.57.03-.64-.29-.22-.14.19-.33.38-.39.43-.08.05-.14.17-.14.25s-.03.16-.07.19c-.04.03-.09.19-.12.36-.03.17-.09.33-.13.36-.27.16.52-4.68,1.01-6.28.82-2.62,2.73-6.88,4.28-9.6C9.57,6.37,12.83,2.79,15.72,1.43c1.43-.68,2.39-.84,3.63-.63.64.12,1.02.28,1.64.7.88.6,1.59,1.54,1.93,2.55.22.66.2.78-.08.89-.22.09-.23.08-.23-.1,0-.57-.85-2.04-1.55-2.69-1.46-1.35-3.04-1.49-5.16-.42-1.25.63-2.52,1.62-3.93,3.08-1.87,1.94-3.35,3.99-5.06,7.04-2.47,4.39-4.08,8.5-4.81,12.24-.19.99-.19,1,0,1,.18,0,.31-.22.31-.53,0-.25.13-.33.57-.33.19,0,.21.02.21.28,0,.15-.09.64-.19,1.1-.19.83-.36,2.11-.35,2.59,0,.17.03.17.09,0,.05-.14.12-.26.15-.26s.11-.1.15-.23c.05-.12.12-.23.15-.23s.09-.12.11-.27c.05-.22.09-.27.31-.32.15-.02.33-.03.41-.02.15.03.17.25.06,1.21-.05.48-.09.56-.22.56-.14,0-.15-.05-.12-.5.02-.45.02-.49-.11-.41-.07.05-.19.22-.27.39-.07.17-.17.35-.22.39-.15.15-.35.64-.35.84,0,.26-.12.33-.22.15h0Z"/>
    <path class="cls-11" d="M7.28,26.57c0-.16.04-.24.12-.24.06,0,.12-.05.12-.12,0-.09.09-.12.29-.12.19,0,.19.09,0,.26-.54.49-.53.49-.53.22h0Z"/>
    <path class="cls-11" d="M2.55,25.4c0-.05.02-.08.05-.05.02.03.02.08,0,.11-.03.02-.05,0-.05-.05h0Z"/>
    <path class="cls-11" d="M9.83,24.59c0-.17.03-.19.29-.19.19,0,.21.06.06.19-.29.24-.36.24-.36,0h0Z"/>
    <path class="cls-11" d="M17.26,18.27c0-.53.15-1,.32-1s.15.08-.05,1.01c-.02.06-.03.16-.03.22,0,.05-.06.09-.12.09-.09,0-.12-.09-.12-.32Z"/>
    <path class="cls-11" d="M20.13,7.79c0-.24.02-.27.19-.27.22,0,.23.02.08.31-.16.31-.27.29-.27-.04Z"/>
  </g>
  <g>
    <path class="cls-10" d="M4.44,30.64c-.12-.1-.32-.37-.43-.6-.32-.66-.38-1.84-.09-1.84.09,0,.11.12.12.53,0,.29.05.64.11.79.06.18.11.17.15-.04.14-.74.71-1.56,1.87-2.68,1.21-1.15,2.54-2.14,5.59-4.15,2.54-1.67,3.43-2.35,4.51-3.46.39-.39.53-.6.57-.81.24-1.34.94-4.78,1.22-5.91,1.08-4.44,2.78-7.84,3.99-8.01.17-.02.32-.09.32-.13,0-.05-.15-.38-.33-.74-.31-.61-1.23-1.77-1.42-1.78-.04,0-.15-.07-.23-.15-.31-.29-1.4-.63-1.98-.63-.27,0-.37-.03-.37-.12,0-.31,1.4-.14,2.23.29.69.35,1.45,1.08,1.9,1.82.4.67.76,1.58.7,1.79-.02.08-.22.23-.46.36-.76.4-1.53,1.52-2.33,3.41-.32.74-.41,1.01-.98,2.83-.28.9-.57,2.07-.94,3.87-.11.53-.3,1.42-.42,1.97-.12.56-.26,1.19-.31,1.42-.21.99-1.27,1.93-5.19,4.57-1.34.91-2.55,1.72-2.67,1.81-2.53,1.83-4.12,3.37-4.53,4.37-.05.14-.17.3-.26.36-.14.09-.15.16-.11.57.03.26.04.47.02.47-.02,0-.13-.09-.26-.19h0Z"/>
    <path class="cls-10" d="M2.62,29.47c-.16-.26-.28-1.7-.17-2.11.08-.28.26-.22.26.08,0,.22.04.19.28-.33.15-.32.48-.91.75-1.29.44-.67.5-.72.73-.72s.26.02.26.28c0,.15-.12.67-.26,1.15s-.29,1.04-.32,1.24c-.05.29-.09.36-.21.36-.14,0-.15-.03-.1-.4.03-.22.06-.43.07-.45,0-.05-.07-.08-.22-.08-.06,0-.14.11-.16.25-.03.13-.11.29-.16.36-.06.05-.09.13-.07.17.02.04-.04.12-.13.19-.09.07-.15.12-.11.12s.02.05-.03.12c-.05.06-.07.14-.05.19.03.04,0,.12-.06.19-.06.05-.14.26-.18.45s-.09.31-.12.26h0Z"/>
    <path class="cls-10" d="M2.52,26.59c.03-.21.14-.74.24-1.2.22-.97.22-.96.09-.84-.06.05-.13.06-.15.03-.03-.02-.05.08-.05.23,0,.23-.06.36-.33.63-.19.19-.36.33-.39.29-.05-.05-.09.15-.06.31,0,.03-.02.05-.06.05s-.11.15-.15.35c-.13.53-.19.42-.13-.29.19-2.26,1.15-5.85,2.28-8.61.46-1.12.63-1.36.63-.87,0,.19-.03.28-.12.28-.08,0-.12.09-.12.27,0,.15-.03.27-.08.27-.04,0-.08.09-.08.19s-.03.19-.07.19-.09.14-.12.31c-.03.2-.09.31-.16.31s-.12.08-.12.21c0,.26-.61,2.14-.7,2.18-.04.02-.07.11-.07.21,0,.09-.13.71-.3,1.36-.48,1.91-.48,1.94.05,1,.68-1.22.63-1.16.96-1.16.29,0,.29,0,.29.29,0,.17-.07.5-.16.76-.22.64-.74,2.69-.81,3.19-.04.33-.08.4-.2.4-.13,0-.15-.04-.1-.36ZM2.17,25.4s-.03-.08-.08-.08c-.04,0-.08.04-.08.08,0,.05.04.08.08.08.05,0,.08-.03.08-.08Z"/>
    <path class="cls-10" d="M4.39,16.14c.17-.47.95-2.04,1.02-2.04.16,0,.09.46-.16.97-.14.28-.29.5-.35.5-.06,0-.1.09-.1.22,0,.34-.08.47-.28.47-.14,0-.17-.03-.13-.13Z"/>
    <path class="cls-10" d="M5.42,13.98c0-.05.85-1.7,1.02-1.96.15-.23.22-.2.22.11,0,.22-.03.27-.15.27s-.15.05-.15.26c0,.15-.05.32-.12.39-.06.06-.12.15-.12.19s-.08.24-.17.43c-.13.26-.22.35-.35.35-.1,0-.18-.02-.18-.05Z"/>
    <path class="cls-10" d="M6.66,11.65c0-.09.26-.5.33-.5.03,0,.06.12.06.27,0,.24-.02.27-.19.27-.11,0-.19-.02-.19-.05Z"/>
    <path class="cls-10" d="M7.04,10.96c0-.1,1.12-1.88,1.8-2.86.65-.93,1.81-2.44,1.88-2.44.02,0,.03.12.03.27,0,.19-.04.27-.11.27-.06,0-.12.08-.14.18-.02.11-.09.18-.19.19-.13.02-.18.08-.18.22,0,.13-.04.19-.15.19s-.15.05-.15.19c0,.15-.04.19-.19.19-.17,0-.19.03-.19.27,0,.15-.03.27-.08.27-.04,0-.08.05-.08.12,0,.07-.07.12-.19.12-.17,0-.19.03-.19.27,0,.15-.03.27-.08.27-.04,0-.08.05-.08.12s-.03.12-.08.12c-.04,0-.08.05-.08.12s-.03.12-.08.12c-.04,0-.08.05-.08.12s-.03.12-.08.12c-.04,0-.08.05-.08.12s-.05.12-.12.12c-.07,0-.12.07-.12.19s-.05.19-.12.19-.12.07-.12.19c0,.11-.03.19-.08.19-.04,0-.08.05-.08.12s-.05.12-.12.12c-.07,0-.12.07-.12.19,0,.15-.04.19-.19.19-.11,0-.19-.02-.19-.05h0Z"/>
    <path class="cls-10" d="M10.99,5.35c.24-.34.31-.35.31-.05,0,.26-.02.28-.24.28s-.23,0-.07-.23Z"/>
    <path class="cls-10" d="M12.62,3.7c0-.15,2.59-2.06,2.79-2.06.04,0,.07.09.07.19,0,.15-.04.19-.19.19-.12,0-.19.05-.19.12,0,.08-.08.12-.23.12-.18,0-.23.03-.23.15,0,.1-.05.15-.15.15-.09,0-.15.05-.15.12s-.05.12-.11.12-.12.05-.15.12c-.02.06-.12.12-.2.12s-.15.05-.15.12c0,.08-.08.12-.22.12-.19,0-.23.03-.26.22-.02.18-.06.21-.31.23-.16.02-.29,0-.29-.02h0Z"/>
    <path class="cls-10" d="M16.04,1.39c.02-.05.15-.14.28-.19.24-.1.25-.09.25.09,0,.17-.03.19-.28.19-.18,0-.26-.03-.25-.09Z"/>
    <path class="cls-10" d="M16.95,1.06c0-.07.15-.14.39-.19.52-.11.54-.11.54.06,0,.11-.08.15-.29.19-.46.07-.64.05-.64-.06Z"/>
  </g>
  <path class="cls-8" d="M4.31,30.43c-.69-.81-.7-2.14-.05-4.27.13-.43.22-.78.21-.8-.06-.05-1,1.42-1.26,1.99-.15.33-.33.91-.4,1.3-.08.39-.16.7-.19.7-.18,0-.2-2.14-.04-3.06.16-.87.46-2.04.74-2.93.23-.72.26-1.05.05-.72-.55.9-1.14,2.05-1.46,2.87-.22.56-.41,1.02-.43,1.04-.15.17.38-2.83.8-4.44.69-2.72,1.58-5.01,3.16-8.17,2.14-4.27,4.12-7.18,6.5-9.57,2.41-2.41,4.53-3.59,6.43-3.59,1.12,0,1.99.35,2.79,1.1.6.57,1,1.15,1.33,1.96.34.84.34.85-.13.85-.36,0-.41.03-.77.39-1.2,1.18-2.41,3.97-3.3,7.6-.28,1.14-.98,4.58-1.22,5.91-.04.21-.19.42-.57.81-1.08,1.11-1.97,1.79-4.51,3.46-3.05,2.01-4.38,3-5.59,4.15-1.52,1.46-2.05,2.42-1.83,3.3.05.19.07.37.05.39-.02.02-.16-.11-.31-.29h0ZM4.53,28.66c.27-.53.72-1.06,1.63-1.92.5-.47.94-.87.97-.87.02,0,.19-.13.37-.29s.42-.35.53-.41c.12-.05.25-.15.28-.2.03-.05.12-.1.17-.1.06,0,.12-.03.12-.06,0-.07,1.5-1.12,3.89-2.73.84-.56,1.87-1.28,2.27-1.59.46-.36.81-.57.92-.57.14,0,.19-.04.19-.15,0-.19.46-.7.63-.7.09,0,.14-.06.14-.15,0-.09.03-.22.07-.29.1-.18.81-3.88.77-3.93-.02-.02-.4.12-.84.3-.44.19-1.01.42-1.27.5-4.77,1.67-6.15,2.33-8.4,3.99-.88.66-2.39,2.1-2.7,2.59-.45.7-1.18,3.17-1.28,4.3-.05.57-.02.57.26.02.09-.16.36-.57.6-.91.42-.59.45-.62.74-.62s.29.02.29.24c0,.14-.1.58-.23.99-.44,1.45-.62,2.56-.49,3.19.03.17.08.15.14-.05.05-.16.15-.43.23-.57h0ZM2.94,26.99s-.02-.04-.04-.04-.04.02-.04.04.02.04.04.04.04-.02.04-.04ZM18.22,3.29c.15-.06.15-.18,0-.35-.1-.11-.16-.12-.27-.06-.17.09-.19.23-.05.36.11.11.15.11.33.05Z"/>
  <g>
    <path class="cls-9" d="M4.23,30.19c-.52-.7-.46-2.18.15-4.23.12-.37.22-.72.24-.77.02-.05,0-.1-.03-.1-.19,0-1.4,1.95-1.69,2.73-.24.63-.29.53-.24-.46.06-1.27.11-1.66.29-2.42.23-.99.83-2.72,1.08-3.12.12-.19.62-.74,1.1-1.2,2.12-2.07,4.34-3.36,8.11-4.71.74-.26,1.44-.51,1.55-.54.39-.12,1.77-.68,2.38-.98.36-.17.66-.29.68-.27s-.16,1.1-.41,2.38c-.3,1.57-.62,2.54-.98,2.91-.73.77-1.9,1.66-4.23,3.21-3.56,2.38-4.78,3.3-6.07,4.54-1.2,1.16-1.71,2-1.71,2.82,0,.24-.02.44-.02.44s-.1-.12-.21-.25h0ZM4.57,28.38c0-.34,2.07-2.29,3.56-3.37,2-1.44,1.89-1.36,3.16-2.25.27-.19.77-.51,1.09-.73,2.04-1.32,3.79-2.74,4.24-3.41.15-.24.35-1.21.22-1.14-.05.02-.31.21-.59.41-.7.5-1.63,1.05-2.9,1.7-.6.31-1.56.83-2.13,1.15-2.91,1.61-4.13,2.45-5.62,3.89-.61.59-.68.72-.81,1.49-.05.29-.12.54-.15.57s-.07.14-.07.26-.02.24-.05.27c-.09.09-.25.9-.25,1.29,0,.23.04.28.15.15.09-.11.15-.22.15-.27h0Z"/>
    <path class="cls-9" d="M17.74,3.52c-.09-.08-.19-.25-.21-.38-.1-.53.63-.8.97-.37.21.26.21.53,0,.73-.21.19-.53.2-.75.02h0ZM18.27,3.15c0-.05-.05-.14-.12-.19-.09-.08-.14-.08-.23,0-.11.09-.11.12,0,.24.13.15.34.12.34-.05Z"/>
  </g>
  <g>
    <path class="cls-3" d="M4.14,29.8c-.14-.43-.19-.81-.15-1.2.07-.7.21-1.53.29-1.61.03-.04.06-.16.06-.28s.03-.23.07-.26.11-.28.15-.57c.13-.77.2-.9.81-1.49,1.49-1.44,2.71-2.28,5.62-3.89.57-.32,1.53-.84,2.13-1.15s1.38-.74,1.74-.95c.7-.42,2.32-1.56,2.42-1.71.09-.13.08,0-.12,1.02-.1.52-.24,1.03-.31,1.13-.44.67-2.21,2.1-4.23,3.41-.33.22-.82.54-1.09.73-1.27.89-1.16.81-3.16,2.25-1.46,1.06-3.55,3.03-3.56,3.35,0,.04-.06.16-.15.27-.08.12-.2.39-.27.62-.14.42-.19.47-.24.31h0Z"/>
    <path class="cls-3" d="M17.96,3.59c-.4-.13-.53-.68-.22-.9.25-.17.45-.15.45.03,0,.1-.05.15-.15.15-.12,0-.15.05-.15.23s.04.23.15.23c.17,0,.24-.15.24-.48,0-.23,0-.24.15-.1s.2.46.09.63c-.08.12-.42.24-.56.19Z"/>
  </g>
  <path class="cls-6" d="M17.7,3.4c-.24-.34-.11-.7.28-.8.26-.06.6.24.6.53,0,.42-.64.61-.88.27ZM18.27,3.21c0-.15-.15-.27-.26-.23-.2.08-.15.29.07.29.11,0,.19-.02.19-.05Z"/>
  <g>
    <path class="cls-4" d="M17.78,3.47c-.21-.15-.25-.53-.07-.7.15-.14.15-.13.21.29.06.5.04.54-.14.4h0Z"/>
    <path class="cls-4" d="M18.19,3.34c0-.18.03-.23.15-.23.1,0,.15.05.15.15,0,.08-.07.19-.15.23-.14.08-.15.06-.15-.15Z"/>
    <path class="cls-4" d="M18.12,2.84c0-.22.09-.25.26-.07.18.17.15.26-.07.26-.15,0-.19-.04-.19-.19Z"/>
  </g>
  <path class="cls-2" d="M17.77,3.46c-.19-.19-.22-.42-.09-.62.25-.37.82-.17.82.29,0,.38-.46.59-.73.33ZM18.13,3.09s-.12-.05-.17-.02c-.07.05-.07.07,0,.12.13.08.26,0,.16-.1Z"/>
  <path class="cls-5" d="M17.74,3.4c-.29-.29.09-.87.44-.68.24.12.33.34.24.57-.06.16-.12.2-.33.2-.14,0-.29-.04-.35-.09h0Z"/>
  <g class="cls-12">
    <text class="cls-13" transform="translate(24.8 18.59)"><tspan x="0" y="0">En</tspan></text>
    <text class="cls-13" transform="translate(43.17 18.59)"><tspan x="0" y="0">g</tspan></text>
    <text class="cls-13" transform="translate(52.15 18.59)"><tspan class="cls-1" x="0" y="0">V</tspan><tspan x="10.15" y="0">ibe</tspan></text>
  </g>
</svg>